<svg xmlns="http://www.w3.org/2000/svg" viewBox="0 0 420 490.1" fill="#FFF"><title>teacher2</title><g id="Layer_2" data-name="Layer 2"><g id="Layer_1-2" data-name="Layer 1"><path d="M140,.1A34.45,34.45,0,0,0,116.8,9a15.72,15.72,0,0,0-3-.2A26.46,26.46,0,0,0,87.5,35.1V78.8a25.87,25.87,0,0,0,9.2,19.7c-.2,2.1-.4,4.2-.4,6.3v.2A113.84,113.84,0,0,0,210.1,218.7c62.7,0,113.8-51,113.8-113.7h0a113.69,113.69,0,0,0-7.7-40.4A35,35,0,0,0,297.7,0Zm0,17.5H297.6a17.33,17.33,0,0,1,17.5,17.5,17.29,17.29,0,0,1-17.3,17.5H140a16.48,16.48,0,0,1-5.2-1,8.91,8.91,0,0,0-5.8-.5c-.2.1-.4.1-.6.2a3.7,3.7,0,0,0-1.1.5l-.6.3a.1.1,0,0,0-.1.1c-.1.1-.3.2-.4.3s-.3.2-.4.3l-.3.3-.3.3c-.1.1-.2.3-.3.4l-.6.6-.3.3c-.1.1-.1.3-.2.4a9.15,9.15,0,0,0-1.4,5.8v18a8.75,8.75,0,1,1-17.5,0V35.1a8.63,8.63,0,0,1,8.8-8.8,10.11,10.11,0,0,1,2.3.4,8.18,8.18,0,0,0,4.9.6,1.27,1.27,0,0,0,.6-.1c.1,0,.1,0,.2-.1s.4-.1.6-.2.1,0,.2-.1l.6-.3a9.66,9.66,0,0,0,3.4-2.6A17.89,17.89,0,0,1,140,17.6ZM297.9,70.1h1.2a98.15,98.15,0,0,1,7.2,35,96.25,96.25,0,0,1-192.5,0h0A26.29,26.29,0,0,0,140,78.9V70.1H297.9ZM130.5,227.6C58.2,227.6,0,288.2,0,362.9V490.1H420V362.8c0-74.6-58.2-135.3-130.5-135.3Zm0,17.5h2.8L115,275.6a8.71,8.71,0,0,0,2.1,11.4L204,356.5a8.82,8.82,0,0,0,11.6.4l87.5-70a8.92,8.92,0,0,0,2.1-11.4l-18.5-30.4h2.8c62.6,0,113,52.2,113,117.8V472.7H17.5V362.8c0-65.5,50.5-117.7,113-117.7Zm23.2,0h14.9l24.7,80.4L133.9,278Zm33.1,0h46.3L210,320.3Zm64.6,0h14.9L286.1,278l-59.4,47.5ZM210,376.3a8.88,8.88,0,0,0-8.8,8.8,8.8,8.8,0,0,0,17.6,0,8.88,8.88,0,0,0-8.8-8.8Zm70,0v17.5h96.3V376.3Zm-70,35a8.8,8.8,0,1,0,8.8,8.8A8.94,8.94,0,0,0,210,411.3Z"/></g></g></svg>