<svg xmlns="http://www.w3.org/2000/svg" viewBox="0 0 490.05 560.1" fill="#FFF"><title>Asset 1</title><g id="Layer_2" data-name="Layer 2"><g id="Layer_1-2" data-name="Layer 1"><path d="M272.37,407.73l7.1-23.21h0a13.12,13.12,0,0,0-12.5-17h-43.9a13.12,13.12,0,0,0-12.5,17l7.1,23.21h0a17.8,17.8,0,0,0,5.5,8.29l-1,10.5,14.4,35.1,3.8-41.5h9.1l3.8,41.5,14.4-35.1-1-10.5h0a16.88,16.88,0,0,0,5.7-8.29Zm-16.7-5.21h-21.1l-5.4-17.5h31.9Z"/><path d="M490,550.12l-18.5-145.7a42.63,42.63,0,0,0-12-23.5,41.2,41.2,0,0,0-23.71-11.5l-109.2-19.7a7.72,7.72,0,0,1-6.5-5.6l-.1-.5a139.66,139.66,0,0,1-15.2,9.2,23.12,23.12,0,0,0,8.2,9.6l-67.9,165.7-67.7-165.6a24.54,24.54,0,0,0,8.2-9.6,132,132,0,0,1-15.3-9.2l-.2.8a7.79,7.79,0,0,1-6.4,5.3l-109,19.7a41.88,41.88,0,0,0-36.09,35L.08,550.22a8.54,8.54,0,0,0,1.8,6.5,8.82,8.82,0,0,0,5.8,3.3,8.58,8.58,0,0,0,6.5-1.8,8.82,8.82,0,0,0,3.3-5.8L36,406.72a24.14,24.14,0,0,1,7.4-13.6,24.73,24.73,0,0,1,14.1-6.4l103.2-18.6L237,554.62a8.78,8.78,0,0,0,16.2,0l76.3-186.5L433,386.82a24.23,24.23,0,0,1,21.2,19.9l18.5,145.7a8.75,8.75,0,0,0,15.59,4.3,9.24,9.24,0,0,0,1.71-6.6Z"/><path d="M380.67,180.63v-58.8l-17.6,6.1v53a352.37,352.37,0,0,1-236.1-.3v-52.7l-17.5-6.1v58.8a17.7,17.7,0,0,0,11.7,16.7c.8.3,1.6.5,2.3.8h0a146.32,146.32,0,0,0-.9,16.2c0,74.8,55,135.6,122.5,135.6s122.5-60.8,122.5-135.6a146.59,146.59,0,0,0-.9-16.2c.8-.3,1.6-.5,2.3-.8a17.61,17.61,0,0,0,8.5-6.5,17.42,17.42,0,0,0,3.2-10.2ZM245.07,332.52c-57.9,0-105-53-105-118.1,0-3.6.2-7.2.5-10.79h0a373,373,0,0,0,104.5,15.1,369.4,369.4,0,0,0,104.5-15.1c.3,3.6.5,7.1.5,10.79,0,65.1-47.1,118.1-105,118.1Z"/><path d="M49.67,82.63l186.9,64.7a26.19,26.19,0,0,0,17,0l175.2-60.7v76.5a25.17,25.17,0,0,0-14.09,10.5,22.17,22.17,0,0,0-1.1,21.6l13.9,30.4a11.16,11.16,0,0,0,20,0l.1-.11,13.8-30.1h0a22.1,22.1,0,0,0-1-21.7,25.2,25.2,0,0,0-14.1-10.5V74.42a9,9,0,0,0-5.7-8.2c-.1,0-.1-.1-.2-.1L253.57,1.43a25.93,25.93,0,0,0-17,0L49.67,66.13a8.75,8.75,0,0,0-5.9,8.3,8.86,8.86,0,0,0,5.9,8.2Zm387.9,96.79a9.42,9.42,0,0,1,8.1,3.6,5,5,0,0,1,0,5l-8.1,17.61-8.09-17.71h0a4.6,4.6,0,0,1,.09-4.8,8.89,8.89,0,0,1,8-3.7ZM242.27,18a9.11,9.11,0,0,1,5.61,0l163,56.4-163,56.4a8.94,8.94,0,0,1-5.6,0l-163-56.4Z"/></g></g></svg>